<?xml version="1.0" encoding="utf-8"?>
<!-- Generator: Adobe Illustrator 23.0.1, SVG Export Plug-In . SVG Version: 6.00 Build 0)  -->
<svg version="1.1" id="Layer_1" xmlns="http://www.w3.org/2000/svg" xmlns:xlink="http://www.w3.org/1999/xlink" x="0px" y="0px"
	 viewBox="0 0 256 256" style="enable-background:new 0 0 256 256;" xml:space="preserve">
<style type="text/css">
	.st0{fill:#00AEEF;}
	.st1{fill:#FFFFFF;}
</style>
<rect class="st0" width="256" height="256"/>
<path class="st1" d="M128.08,48.01c-44.06,0-79.79,35.72-79.79,79.79c0,15.76,4.59,30.44,12.47,42.81c0,0-9.97,21.25-12.47,30.19
	c-0.54,2.62-0.09,8.84,8.29,6.78c7.52-2.11,28.61-12.52,28.61-12.52c12.39,7.91,27.1,12.52,42.89,12.52
	c44.06,0,79.79-35.72,79.79-79.79C207.86,83.73,172.14,48.01,128.08,48.01z M90.01,154.13c-6.38,0-11.56-5.18-11.56-11.56
	s5.18-11.56,11.56-11.56s11.56,5.18,11.56,11.56C101.57,148.95,96.39,154.13,90.01,154.13z M97.55,109.52
	c0-6.38,5.18-11.56,11.56-11.56s11.56,5.18,11.56,11.56s-5.18,11.56-11.56,11.56C102.72,121.08,97.55,115.91,97.55,109.52z
	 M128.21,154.13c-6.38,0-11.56-5.18-11.56-11.56s5.18-11.56,11.56-11.56c6.38,0,11.56,5.18,11.56,11.56
	C139.77,148.95,134.59,154.13,128.21,154.13z M135.74,109.52c0-6.38,5.18-11.56,11.56-11.56s11.56,5.18,11.56,11.56
	s-5.17,11.56-11.56,11.56C140.92,121.08,135.74,115.91,135.74,109.52z M166.15,154.13c-6.38,0-11.56-5.18-11.56-11.56
	s5.18-11.56,11.56-11.56s11.56,5.18,11.56,11.56C177.71,148.95,172.53,154.13,166.15,154.13z"/>
</svg>
